<?xml version="1.0" encoding="utf-8"?>
<svg version="1.1" id="Layer_1"
xmlns="http://www.w3.org/2000/svg"
xmlns:xlink="http://www.w3.org/1999/xlink"
width="391px" height="100px"
xml:space="preserve">
<g id="PathID_49" transform="matrix(0.863153, 0, 0, 0.863153, 10, 16.9)" opacity="1">
<path style="fill:#BBE2E8;fill-opacity:1" d="M107.7 72.3Q105.05 69.25 101 68.85Q96.95 68.25 93.7 70.5Q90.25 72.9 89.65 76.95L89.65 74.5Q91.3 55.7 78.95 41.35Q66.8 26.95 47.95 25.35Q30.55 23.95 16.6 34.45Q4.65 43.55 0.4 57.75Q5.05 39.7 20.45 27.75Q37.65 14.8 59.1 16.45Q82.4 18.25 97.15 36.05Q112.35 53.9 110.3 76.95L110.1 79.6Q110.3 75.55 107.7 72.3M82.4 75.95Q82.6 72.9 80.55 70.7Q78.55 68.25 75.5 67.85Q72.45 67.45 69.85 69.25Q67.6 70.9 66.8 74.1L67.2 72.3Q68.2 58.15 59.1 47.2Q50 36.45 35.85 35.25Q22.65 34.25 12.15 42.15Q3.25 49.2 0 59.55Q3.65 46 15 37.3Q27.95 27.35 44.1 28.6Q61.55 30 72.65 43.35Q83.8 56.7 82.6 74.1L82.4 75.95M120 77.55Q122.05 52.65 105.85 33.45Q89.45 14.2 64.15 12.2Q41.1 10.15 22.45 24.35Q6.5 36.45 0.8 55.3Q7.3 31.2 27.75 15.65Q50.4 -2 79.15 0.25Q109.9 2.9 129.95 26.35Q146.75 46.2 147.75 71.3Q147.95 74.3 147.75 77.35L147.55 80.8L147.15 84.45Q147.55 79 143.9 74.95Q140.45 70.5 135 69.85Q129.75 69.05 125.3 72.3Q120.85 75.55 119.6 80.8L120 77.55" />
</g>
<g id="PathID_50" transform="matrix(1.02962, 0, 0, 1.31378, 94.4, 59.05)" opacity="1">
<path style="fill:#0063B1;fill-opacity:1" d="M8.4 -4.5L8.45 -3.25Q8.55 -2.85 8.75 -2.6Q8.95 -2.4 9.4 -2.3L10.9 -2.25L12.7 -2.25Q14.1 -2.25 14.9 -2.45Q15.7 -2.65 16.2 -3.1Q16.75 -3.6 17.2 -4.45L18.4 -6.9L20.2 -6.5L19.75 -4.45L19.45 -2.95L19.25 -1.55L19.1 0L10.65 0L6.15 -0.05L5.1 0L3.85 0L2.6 0L1.15 0L1.05 -1.8L3.15 -2Q3.8 -2.15 4.05 -2.4Q4.3 -2.65 4.4 -3.1Q4.55 -3.6 4.55 -4.45L4.55 -20.95Q4.55 -21.45 4.45 -21.7Q4.35 -22 4.1 -22.15Q3.9 -22.35 3.35 -22.45Q2.8 -22.6 1.35 -22.65L1.45 -24.5L2.75 -24.45L4.2 -24.5L5.2 -24.45L6.55 -24.45L11.1 -24.5L18.9 -24.55L18.65 -21.35L18.55 -18L16.6 -18Q16.3 -19.65 16.05 -20.35Q15.85 -21.1 15.4 -21.5Q15 -21.9 14.3 -22.1Q13.65 -22.3 12.45 -22.3L9 -22.3L8.4 -22.25L8.4 -21.85L8.4 -13.95L16.35 -14.15L16.8 -13.7L16.75 -11L11.8 -11.2L8.4 -11.35L8.4 -4.5" />
</g>
<g id="PathID_51" transform="matrix(1.02962, 0, 0, 1.31378, 115.45, 59.05)" opacity="1">
<path style="fill:#0063B1;fill-opacity:1" d="M9.5 0L7.2 0L5.1 -0.05L3.2 0L1.1 0L1 -1.7L2.6 -1.95Q3 -2.1 3.2 -2.3Q3.4 -2.5 3.45 -2.95Q3.55 -3.45 3.55 -4.3L3.55 -10.6Q3.55 -11.25 3.45 -11.55Q3.4 -11.85 3.25 -11.95Q3.15 -12.1 2.8 -12.2L1.35 -12.5L1.25 -14L2.9 -14.4L4.2 -14.75L5.35 -15.05L6.6 -15.45L7.4 -14.95L7.25 -13.65L7.2 -13.2Q7.7 -14.15 9.25 -14.8Q10.85 -15.45 12.25 -15.45Q13.25 -15.45 14.15 -15.1Q15.05 -14.75 15.65 -14.05Q16.3 -13.4 16.65 -12.35Q17.05 -11.3 17.05 -9.9L17.05 -3.25L17.1 -2.45Q17.15 -2.2 17.25 -2.1L17.75 -1.95L19.4 -1.85L19.3 0L17 0L14.9 -0.05L13.05 0L11.05 0L10.95 -1.7L12.45 -1.95Q12.85 -2.05 13 -2.2Q13.15 -2.4 13.2 -2.8Q13.3 -3.25 13.3 -4.15L13.3 -9.3Q13.3 -11 12.55 -11.75Q11.85 -12.5 10.75 -12.5Q9.95 -12.5 8.95 -12.1Q8 -11.75 7.25 -11.25L7.25 -3.25L7.25 -2.45Q7.3 -2.2 7.4 -2.1L7.95 -1.95L9.65 -1.85L9.5 0" />
</g>
<g id="PathID_52" transform="matrix(1.02962, 0, 0, 1.31378, 135.5, 59.05)" opacity="1">
<path style="fill:#0063B1;fill-opacity:1" d="M7.35 -14.9L7.2 -13.3L7.1 -11.9L7.05 -10.65L7.1 -9.65L7.1 -3.35L7.1 -1.05L7.1 0.75L7.1 1.75Q7.1 2.85 6.85 3.9Q6.65 4.95 6.35 5.8Q5.75 7.25 4.3 8.7Q2.9 10.15 0.5 11.35L-0.4 9.85Q1.15 8.6 1.9 7.55Q2.65 6.5 2.95 5.25Q3.3 4.05 3.35 2.6L3.4 -0.5L3.4 -10.7Q3.4 -11.35 3.3 -11.6Q3.25 -11.9 3.1 -12Q3 -12.15 2.65 -12.25L1.15 -12.55L1.05 -14.05L2.9 -14.45L4.35 -14.8L5.5 -15.1L6.65 -15.45L7.35 -14.9M2.9 -20.8Q2.9 -21.8 3.5 -22.45Q4.15 -23.15 5.15 -23.15Q6.25 -23.15 6.9 -22.45Q7.6 -21.8 7.6 -20.8Q7.6 -19.8 6.9 -19.15Q6.25 -18.5 5.15 -18.5Q4.15 -18.5 3.5 -19.15Q2.9 -19.8 2.9 -20.8" />
</g>
<g id="PathID_53" transform="matrix(1.02962, 0, 0, 1.31378, 144.55, 59.05)" opacity="1">
<path style="fill:#0063B1;fill-opacity:1" d="M1.3 -7.3Q1.3 -9 1.9 -10.45Q2.5 -11.95 3.55 -13.05Q4.65 -14.15 6.1 -14.8Q7.55 -15.45 9.2 -15.45Q11 -15.45 12.45 -14.8Q13.95 -14.2 15 -13.1Q16.05 -12.05 16.6 -10.6Q17.2 -9.2 17.2 -7.6Q17.2 -5.9 16.55 -4.45Q15.95 -3 14.85 -1.85Q13.8 -0.75 12.3 -0.1Q10.85 0.5 9.2 0.5Q7.4 0.5 5.95 -0.1Q4.5 -0.7 3.45 -1.75Q2.4 -2.85 1.85 -4.25Q1.3 -5.7 1.3 -7.3M9.5 -1.7Q10.45 -1.7 11.1 -2.1Q11.8 -2.55 12.25 -3.25Q12.7 -4 12.9 -4.95Q13.15 -5.9 13.15 -6.85Q13.15 -7.95 12.9 -9.1Q12.65 -10.3 12.1 -11.2Q11.6 -12.1 10.8 -12.65Q10 -13.25 8.9 -13.25Q7.95 -13.25 7.3 -12.8Q6.65 -12.4 6.2 -11.65Q5.75 -10.95 5.55 -10Q5.35 -9.05 5.35 -8.1Q5.35 -7 5.6 -5.8Q5.85 -4.65 6.35 -3.7Q6.9 -2.8 7.65 -2.25Q8.45 -1.7 9.5 -1.7" />
</g>
<g id="PathID_54" transform="matrix(1.02962, 0, 0, 1.31378, 162.9, 59.05)" opacity="1">
<path style="fill:#0063B1;fill-opacity:1" d="M17.9 -13.25L16.3 -13Q15.95 -12.9 15.7 -12.7Q15.45 -12.5 15.2 -12.1L14.6 -10.95L13.3 -8.25L12 -5.25L10.65 -1.9L9.2 1.85L8.2 4.15Q7.7 5.4 7.1 6.55Q6.55 7.75 5.9 8.65Q5.3 9.6 4.75 10.05Q3.3 11.25 1.8 11.25Q1 11.25 0.35 10.75Q-0.25 10.25 -0.25 9.3Q-0.25 8.6 0.1 8.1Q0.5 7.6 1.25 7.2L1.9 7.25L2.25 7.3Q2.75 7.3 3.1 7.2Q3.5 7.1 3.95 6.65Q4.65 5.9 5.5 4.2Q6.35 2.55 7.15 0.45L7.2 0.35L7.1 0.2Q6.6 -1.75 6.1 -2.75L5.05 -5.3L3.8 -8.45Q3.2 -10.1 2.7 -11L2.15 -12.1Q1.95 -12.5 1.7 -12.65Q1.45 -12.85 1.05 -12.95Q0.7 -13.05 -0.4 -13.1L-0.35 -14.95L1.6 -14.95L4.05 -14.95L6 -14.95L7.8 -14.95L7.9 -13.25Q6.5 -13.05 6.3 -12.95Q6.15 -12.85 6.15 -12.75L6.2 -12.4L6.4 -11.75L9.2 -3.7L12.3 -11.85L12.55 -12.7Q12.55 -12.85 12.3 -12.95Q12.05 -13.1 10.6 -13.15L10.65 -14.95L12.4 -14.95L14.5 -14.95L16.2 -14.95L17.8 -14.95L17.9 -13.25" />
</g>
<g id="PathID_55" transform="matrix(1.02962, 0, 0, 1.02962, 196.05, 56.55)" opacity="1">
<path style="fill:#0063B1;fill-opacity:1" d="M10.4 -10Q10.3 -10.75 10 -11.4Q9.7 -12.05 9.15 -12.5Q8.65 -13 8 -13.25Q7.35 -13.55 6.55 -13.55Q6.1 -13.55 5.65 -13.4Q5.25 -13.25 4.9 -12.95Q4.55 -12.7 4.35 -12.25Q4.2 -11.85 4.2 -11.35Q4.2 -10.7 4.5 -10.25Q4.8 -9.8 5.3 -9.4Q5.8 -9.05 6.45 -8.75L7.85 -8.25L9.35 -7.55Q10.1 -7.2 10.7 -6.7Q11.3 -6.2 11.65 -5.5Q12.05 -4.85 12.05 -3.95Q12.05 -2.75 11.55 -1.9Q11.05 -1.1 10.25 -0.55Q9.45 0 8.4 0.25Q7.4 0.5 6.4 0.5L5.05 0.4L3.85 0.2L2.8 -0.05L1.75 -0.2L1.65 -1.3L1.5 -2.6L1.35 -3.9L1.2 -4.85L2.05 -5.1Q2.35 -4.25 2.75 -3.45Q3.2 -2.65 3.8 -2Q4.4 -1.4 5.15 -1.05Q5.9 -0.7 6.9 -0.7Q7.9 -0.7 8.65 -1.2Q9.4 -1.75 9.4 -2.85Q9.4 -3.45 9.1 -3.95Q8.8 -4.45 8.3 -4.8Q7.85 -5.2 7.2 -5.45L5.95 -6.05L4.4 -6.7Q3.65 -7.1 3.05 -7.55Q2.45 -8.05 2.1 -8.7Q1.75 -9.4 1.75 -10.35Q1.75 -11.5 2.2 -12.3Q2.7 -13.15 3.45 -13.7Q4.2 -14.25 5.15 -14.5Q6.15 -14.75 7.1 -14.75Q8.1 -14.75 9.1 -14.55Q10.1 -14.35 11.35 -14.3L11.2 -12.75L11.2 -11.25L11.2 -10.05L10.4 -10" />
</g>
<g id="PathID_56" transform="matrix(1.02962, 0, 0, 1.02962, 209.45, 56.55)" opacity="1">
<path style="fill:#0063B1;fill-opacity:1" d="M14.15 -3.15Q13.7 -2.3 13 -1.6Q12.35 -0.95 11.55 -0.45Q10.75 0 9.85 0.25Q8.95 0.5 8.05 0.5Q6.55 0.5 5.3 -0.05Q4.05 -0.65 3.15 -1.6Q2.25 -2.6 1.75 -3.9Q1.25 -5.2 1.25 -6.6Q1.25 -8.35 1.9 -9.8Q2.6 -11.3 3.75 -12.4Q4.9 -13.5 6.4 -14.1Q7.95 -14.75 9.65 -14.75Q10.5 -14.75 11.3 -14.55Q12.15 -14.4 12.95 -14Q13.3 -13.8 13.45 -13.5Q13.6 -13.25 13.6 -12.95Q13.6 -12.5 13.25 -12Q12.9 -11.55 12.1 -11.15L11.95 -11.15Q11.05 -12.1 10.2 -12.55Q9.35 -13 8.25 -13Q7.2 -13 6.4 -12.55Q5.6 -12.15 5.05 -11.45Q4.55 -10.75 4.3 -9.8Q4.05 -8.9 4.05 -7.95Q4.05 -6.75 4.4 -5.6Q4.75 -4.5 5.4 -3.65Q6.1 -2.8 7.05 -2.3Q8.05 -1.8 9.35 -1.8Q10.55 -1.8 11.65 -2.3Q12.75 -2.8 13.4 -3.85L14.15 -3.15" />
</g>
<g id="PathID_57" transform="matrix(1.02962, 0, 0, 1.02962, 224.5, 56.55)" opacity="1">
<path style="fill:#0063B1;fill-opacity:1" d="M8.9 0L6.9 0L4.6 -0.05L2.7 0L1.1 0L1.05 -0.8L2.35 -0.95Q2.85 -1.1 3.1 -1.4Q3.4 -1.75 3.5 -2.3Q3.6 -2.9 3.6 -3.85L3.6 -10.4Q3.6 -11.1 3.5 -11.5Q3.4 -11.9 3.15 -12.1Q2.95 -12.35 2.45 -12.45L1.25 -12.75L1.2 -13.5L2.75 -13.8L4.2 -14.1L5.45 -14.45L6.3 -14.75L6.55 -14.55L6.4 -13.2L6.3 -11.8L6.3 -10.5L6.3 -9.45L6.3 -2.85L6.35 -1.85Q6.45 -1.5 6.7 -1.3Q6.95 -1.15 7.45 -1.05L8.95 -0.95L8.9 0M3.1 -20.75Q3.1 -21.55 3.6 -22.05Q4.1 -22.6 4.9 -22.6Q5.8 -22.6 6.3 -22.05Q6.85 -21.55 6.85 -20.75Q6.85 -19.9 6.3 -19.4Q5.8 -18.9 4.9 -18.9Q4.1 -18.9 3.6 -19.4Q3.1 -19.9 3.1 -20.75" />
</g>
<g id="PathID_58" transform="matrix(1.02962, 0, 0, 1.02962, 234.15, 56.55)" opacity="1">
<path style="fill:#0063B1;fill-opacity:1" d="M13.95 -2.75Q13.15 -1.7 12.3 -1.05Q11.45 -0.45 10.65 -0.1Q9.9 0.25 9.25 0.35Q8.6 0.5 8.2 0.5Q6.65 0.5 5.35 -0.05Q4.05 -0.65 3.1 -1.65Q2.2 -2.65 1.7 -3.95Q1.2 -5.3 1.2 -6.8Q1.2 -8.5 1.8 -9.9Q2.4 -11.35 3.4 -12.4Q4.45 -13.5 5.75 -14.1Q7.1 -14.75 8.5 -14.75Q9.6 -14.75 10.6 -14.35Q11.65 -14 12.4 -13.3Q13.15 -12.65 13.6 -11.7Q14.05 -10.75 14.05 -9.6L14.05 -9.25L14 -8.9Q13.9 -8.25 13.3 -8.25L3.9 -8.25Q3.9 -6.5 4.4 -5.25Q4.9 -4.05 5.65 -3.25Q6.45 -2.5 7.4 -2.15Q8.4 -1.8 9.35 -1.8Q10.35 -1.8 11.25 -2.1Q12.2 -2.45 13.25 -3.5L13.95 -2.75M10.25 -9.4Q10.75 -9.4 10.9 -9.55Q11.05 -9.75 11.05 -10.2Q11.05 -10.85 10.8 -11.45Q10.6 -12.05 10.15 -12.5Q9.75 -12.95 9.1 -13.2Q8.5 -13.45 7.7 -13.45Q7.15 -13.45 6.55 -13.15Q5.95 -12.9 5.4 -12.35Q4.9 -11.85 4.5 -11.1Q4.1 -10.35 4 -9.4L10.25 -9.4" />
</g>
<g id="PathID_59" transform="matrix(1.02962, 0, 0, 1.02962, 249.7, 56.55)" opacity="1">
<path style="fill:#0063B1;fill-opacity:1" d="M8.65 0L6.85 0L4.6 -0.05L2.65 0L1 0L0.95 -0.8Q1.8 -0.85 2.3 -1Q2.8 -1.15 3.1 -1.45Q3.4 -1.8 3.5 -2.35Q3.6 -2.9 3.6 -3.85L3.6 -10.35Q3.6 -11.05 3.5 -11.45Q3.4 -11.85 3.15 -12.05Q2.95 -12.3 2.45 -12.4L1.25 -12.7L1.2 -13.4L2.5 -13.65L3.9 -14.05L5.2 -14.4L6.15 -14.75L6.5 -14.5L6.35 -13.45L6.3 -12.45Q7.65 -13.5 9.15 -14.1Q10.65 -14.75 12.05 -14.75Q12.95 -14.75 13.7 -14.45Q14.5 -14.15 15.05 -13.5Q15.65 -12.9 16 -11.95Q16.35 -11 16.35 -9.6L16.35 -2.85L16.4 -1.85Q16.5 -1.5 16.7 -1.3Q16.95 -1.15 17.4 -1.05L18.75 -0.95L18.7 0L16.9 0L14.7 -0.05L12.85 0L11.25 0L11.2 -0.8L12.4 -0.95Q12.9 -1.1 13.15 -1.35Q13.4 -1.65 13.5 -2.2Q13.6 -2.75 13.6 -3.7L13.6 -8.95Q13.6 -10.95 12.7 -11.85Q11.8 -12.75 10.45 -12.75Q9.5 -12.75 8.4 -12.35Q7.35 -11.95 6.3 -11.25L6.3 -2.85L6.35 -1.85Q6.4 -1.5 6.65 -1.3Q6.9 -1.1 7.4 -1.05L8.75 -0.95L8.65 0" />
</g>
<g id="PathID_60" transform="matrix(1.02962, 0, 0, 1.02962, 280.35, 56.55)" opacity="1">
<path style="fill:#0063B1;fill-opacity:1" d="M24.8 -13.4Q23.75 -13.3 23.05 -13.1Q22.35 -12.9 21.85 -12.6Q21.35 -12.3 20.95 -11.8L20.2 -10.55L19.05 -8.7Q18.5 -7.75 17.8 -6.8L18.9 -5.45L19.9 -4.2L21.05 -2.9Q21.6 -2.3 22.2 -1.85Q22.85 -1.4 23.6 -1.15Q24.4 -0.9 25.4 -0.9L25.35 0L24.35 0L23.25 0L22.2 0L21.4 -0.05L20.25 0L19.4 0Q18.6 -1.4 17.75 -2.45Q16.95 -3.55 16.05 -4.5Q15.25 -3.45 14.35 -2.5Q13.45 -1.6 12.45 -0.9Q11.45 -0.25 10.3 0.15Q9.2 0.55 7.9 0.55Q6.6 0.55 5.45 0.1Q4.35 -0.35 3.5 -1.15Q2.65 -2 2.2 -3.05Q1.75 -4.1 1.75 -5.3Q1.75 -6.5 2.15 -7.6Q2.55 -8.75 3.25 -9.7Q4 -10.7 4.9 -11.5Q5.8 -12.3 6.85 -12.9Q5.7 -13.95 5 -15.15Q4.35 -16.35 4.35 -17.9Q4.35 -19.15 4.8 -20.1Q5.3 -21.1 6.1 -21.8Q6.95 -22.55 8 -22.95Q9.1 -23.35 10.3 -23.35Q11.25 -23.35 12.15 -23Q13.1 -22.7 13.8 -22.1Q14.5 -21.55 14.9 -20.7Q15.35 -19.9 15.35 -18.85Q15.35 -17.8 14.95 -17Q14.6 -16.2 13.95 -15.55Q13.35 -14.9 12.5 -14.35L10.8 -13.2Q12.35 -12 13.9 -10.6Q15.5 -9.2 16.85 -7.75Q17.85 -9.15 18.45 -10.25Q19.1 -11.4 19.1 -12.2Q19.1 -12.6 18.9 -12.8Q18.7 -13.05 18.35 -13.15L17.65 -13.3L16.8 -13.4L16.85 -14.25L18.6 -14.2L20.75 -14.2L21.8 -14.2L22.85 -14.2L23.85 -14.2L24.75 -14.25L24.8 -13.4M15.15 -5.55L13.6 -7.1L11.9 -8.6L9.95 -10.25L7.75 -12.1Q6.25 -11.2 5.35 -9.75Q4.5 -8.35 4.5 -6.65Q4.5 -5.65 4.85 -4.75Q5.2 -3.9 5.8 -3.2Q6.45 -2.55 7.3 -2.15Q8.2 -1.8 9.25 -1.8Q10.15 -1.8 11 -2.1Q11.85 -2.4 12.6 -2.9Q13.35 -3.4 14 -4.1Q14.65 -4.8 15.15 -5.55M9.75 -14Q11.15 -14.7 11.95 -15.75Q12.8 -16.8 12.8 -18.35Q12.8 -19.05 12.55 -19.7Q12.35 -20.35 11.95 -20.85Q11.55 -21.35 10.95 -21.65Q10.4 -22 9.65 -22Q9 -22 8.45 -21.7Q7.95 -21.4 7.6 -20.95Q7.25 -20.5 7.05 -19.9Q6.9 -19.3 6.9 -18.7Q6.9 -17.85 7.1 -17.2Q7.35 -16.55 7.7 -16Q8.1 -15.45 8.6 -14.95L9.75 -14" />
</g>
<g id="PathID_61" transform="matrix(1.02962, 0, 0, 1.02962, 317.9, 56.55)" opacity="1">
<path style="fill:#0063B1;fill-opacity:1" d="M5.8 -19.5L5.7 -18.1L5.6 -16.5L5.6 -15.05L5.6 -13.95L9.85 -14L10.1 -13.8L10 -12.55L5.6 -12.55L5.6 -4.5Q5.6 -3.55 5.75 -2.9Q5.95 -2.3 6.25 -1.9Q6.6 -1.55 7.05 -1.4Q7.5 -1.3 8.05 -1.3L9.2 -1.4L10.35 -1.65L10.55 -0.75Q9.55 -0.25 8.4 0.05Q7.3 0.4 6.25 0.4Q5.55 0.4 4.9 0.2Q4.3 0.05 3.8 -0.4Q3.35 -0.85 3.1 -1.6Q2.85 -2.35 2.85 -3.4L2.85 -4.1L2.85 -5.5L2.85 -8.2L2.85 -12.55L0.6 -12.55L0.45 -12.7L0.55 -13.7L2.9 -13.9L2.9 -15.95L2.85 -17.25L2.85 -18.5L3.65 -18.8L4.4 -19.1L5.05 -19.4L5.5 -19.65L5.8 -19.5" />
</g>
<g id="PathID_62" transform="matrix(1.02962, 0, 0, 1.02962, 329.05, 56.55)" opacity="1">
<path style="fill:#0063B1;fill-opacity:1" d="M13.95 -2.75Q13.15 -1.7 12.3 -1.05Q11.45 -0.45 10.65 -0.1Q9.9 0.25 9.25 0.35Q8.6 0.5 8.2 0.5Q6.65 0.5 5.35 -0.05Q4.05 -0.65 3.1 -1.65Q2.2 -2.65 1.7 -3.95Q1.2 -5.3 1.2 -6.8Q1.2 -8.5 1.8 -9.9Q2.4 -11.35 3.4 -12.4Q4.45 -13.5 5.75 -14.1Q7.1 -14.75 8.5 -14.75Q9.6 -14.75 10.6 -14.35Q11.65 -14 12.4 -13.3Q13.15 -12.65 13.6 -11.7Q14.05 -10.75 14.05 -9.6L14.05 -9.25L14 -8.9Q13.9 -8.25 13.3 -8.25L3.9 -8.25Q3.9 -6.5 4.4 -5.25Q4.9 -4.05 5.65 -3.25Q6.45 -2.5 7.4 -2.15Q8.4 -1.8 9.35 -1.8Q10.35 -1.8 11.25 -2.1Q12.2 -2.45 13.25 -3.5L13.95 -2.75M10.25 -9.4Q10.75 -9.4 10.9 -9.55Q11.05 -9.75 11.05 -10.2Q11.05 -10.85 10.8 -11.45Q10.6 -12.05 10.15 -12.5Q9.75 -12.95 9.1 -13.2Q8.5 -13.45 7.7 -13.45Q7.15 -13.45 6.55 -13.15Q5.95 -12.9 5.4 -12.35Q4.9 -11.85 4.5 -11.1Q4.1 -10.35 4 -9.4L10.25 -9.4" />
</g>
<g id="PathID_63" transform="matrix(1.02962, 0, 0, 1.02962, 344.55, 56.55)" opacity="1">
<path style="fill:#0063B1;fill-opacity:1" d="M14.15 -3.15Q13.7 -2.3 13 -1.6Q12.35 -0.95 11.55 -0.45Q10.75 0 9.85 0.25Q8.95 0.5 8.05 0.5Q6.55 0.5 5.3 -0.05Q4.05 -0.65 3.15 -1.6Q2.25 -2.6 1.75 -3.9Q1.25 -5.2 1.25 -6.6Q1.25 -8.35 1.9 -9.8Q2.6 -11.3 3.75 -12.4Q4.9 -13.5 6.4 -14.1Q7.95 -14.75 9.65 -14.75Q10.5 -14.75 11.3 -14.55Q12.15 -14.4 12.95 -14Q13.3 -13.8 13.45 -13.5Q13.6 -13.25 13.6 -12.95Q13.6 -12.5 13.25 -12Q12.9 -11.55 12.1 -11.15L11.95 -11.15Q11.05 -12.1 10.2 -12.55Q9.35 -13 8.25 -13Q7.2 -13 6.4 -12.55Q5.6 -12.15 5.05 -11.45Q4.55 -10.75 4.3 -9.8Q4.05 -8.9 4.05 -7.95Q4.05 -6.75 4.4 -5.6Q4.75 -4.5 5.4 -3.65Q6.1 -2.8 7.05 -2.3Q8.05 -1.8 9.35 -1.8Q10.55 -1.8 11.65 -2.3Q12.75 -2.8 13.4 -3.85L14.15 -3.15" />
</g>
<g id="PathID_64" transform="matrix(1.02962, 0, 0, 1.02962, 359.6, 56.55)" opacity="1">
<path style="fill:#0063B1;fill-opacity:1" d="M6.35 -26.8L6.15 -25.35L6.05 -23.65L6 -22.05L6 -20.85L6 -12.7Q7.25 -13.55 8.75 -14.15Q10.25 -14.75 11.7 -14.75Q12.6 -14.75 13.4 -14.45Q14.2 -14.2 14.8 -13.55Q15.4 -12.95 15.75 -11.95Q16.1 -11 16.1 -9.55L16.1 -2.85L16.15 -1.85Q16.2 -1.5 16.45 -1.3Q16.7 -1.15 17.2 -1.05L18.6 -0.95L18.55 0L16.65 0L14.45 -0.05L12.55 0L11 0L10.95 -0.8L12.2 -0.95Q12.7 -1.1 12.95 -1.35Q13.2 -1.65 13.3 -2.2Q13.4 -2.75 13.4 -3.7L13.4 -8.95Q13.4 -11 12.5 -11.85Q11.6 -12.75 10.15 -12.75Q9.2 -12.75 8.1 -12.4Q7.05 -12.05 6 -11.45L6 -2.85L6.05 -1.85Q6.15 -1.5 6.4 -1.3Q6.65 -1.1 7.1 -1.05L8.45 -0.95L8.35 0L6.55 0L4.35 -0.05L2.45 0L0.85 0L0.8 -0.8Q1.6 -0.85 2.1 -1Q2.6 -1.15 2.85 -1.45Q3.15 -1.8 3.25 -2.35Q3.35 -2.9 3.35 -3.85L3.35 -22.5Q3.35 -23.2 3.25 -23.6Q3.15 -24.05 2.85 -24.25Q2.6 -24.5 2.05 -24.6L0.7 -24.9L0.65 -25.65L2.1 -25.9L3.6 -26.3L5 -26.65L6.05 -27.05L6.35 -26.8" />
</g>
</svg>
